<svg width="72" height="72" viewBox="0 0 72 72" fill="none" xmlns="http://www.w3.org/2000/svg">
  <!-- Background gradient circle -->
  <defs>
    <radialGradient id="bgGradient" cx="0.5" cy="0.5" r="0.5">
      <stop offset="0%" stop-color="#7CC7FF" stop-opacity="0.8"/>
      <stop offset="100%" stop-color="#0EA5E9" stop-opacity="0.3"/>
    </radialGradient>
    <filter id="glow">
      <feGaussianBlur stdDeviation="2" result="coloredBlur"/>
      <feMerge> 
        <feMergeNode in="coloredBlur"/>
        <feMergeNode in="SourceGraphic"/>
      </feMerge>
    </filter>
  </defs>
  
  <!-- Main circle background -->
  <circle cx="36" cy="36" r="30" fill="url(#bgGradient)" filter="url(#glow)"/>
  
  <!-- Pixelated squares pattern matching new logo design -->
  <g fill="#7CC7FF" opacity="0.9">
    <!-- Top row of squares -->
    <rect x="22" y="18" width="3" height="3"/>
    <rect x="27" y="16" width="3" height="3"/>
    <rect x="32" y="17" width="3" height="3"/>
    <rect x="37" y="19" width="3" height="3"/>
    <rect x="42" y="18" width="3" height="3"/>
    <rect x="47" y="20" width="3" height="3"/>
    
    <!-- Second row -->
    <rect x="19" y="23" width="3" height="3"/>
    <rect x="24" y="22" width="3" height="3"/>
    <rect x="29" y="24" width="3" height="3"/>
    <rect x="34" y="23" width="3" height="3"/>
    <rect x="39" y="25" width="3" height="3"/>
    <rect x="44" y="24" width="3" height="3"/>
    <rect x="49" y="26" width="3" height="3"/>
    
    <!-- Third row with larger squares -->
    <rect x="21" y="28" width="4" height="4"/>
    <rect x="27" y="27" width="3" height="3"/>
    <rect x="32" y="29" width="4" height="4"/>
    <rect x="38" y="28" width="3" height="3"/>
    <rect x="43" y="30" width="4" height="4"/>
    
    <!-- Center section with prominent squares -->
    <rect x="25" y="33" width="5" height="5"/>
    <rect x="32" y="34" width="4" height="4"/>
    <rect x="38" y="33" width="3" height="3"/>
    <rect x="43" y="35" width="4" height="4"/>
    
    <!-- Lower section -->
    <rect x="23" y="39" width="3" height="3"/>
    <rect x="28" y="41" width="4" height="4"/>
    <rect x="34" y="40" width="3" height="3"/>
    <rect x="39" y="42" width="4" height="4"/>
    <rect x="45" y="41" width="3" height="3"/>
    
    <!-- Bottom scattered squares -->
    <rect x="26" y="46" width="3" height="3"/>
    <rect x="31" y="48" width="4" height="4"/>
    <rect x="37" y="47" width="3" height="3"/>
    <rect x="42" y="49" width="3" height="3"/>
    
    <!-- Additional detail squares -->
    <rect x="18" y="30" width="2" height="2"/>
    <rect x="51" y="32" width="2" height="2"/>
    <rect x="20" y="45" width="2" height="2"/>
    <rect x="48" y="44" width="2" height="2"/>
  </g>
</svg>